<svg width="24" height="24" viewBox="0 0 24 24" fill="none" xmlns="http://www.w3.org/2000/svg">
<g clip-path="url(#clip0_2679_3392)">
<path d="M21.7149 0.603124C18.2083 0.593284 5.27446 0.609844 2.28502 0.603124C1.35478 0.603124 0.599976 1.33488 0.599976 2.23608V21.7675C0.599976 22.669 1.35478 23.4 2.28502 23.4H21.7149C22.6457 23.4 23.4 22.669 23.4 21.7673V2.23608C23.4 1.33488 22.6457 0.603124 21.7149 0.603124ZM7.52902 19.6812H4.11694V9.41784H7.52878V15.2306C7.53022 16.2931 7.5283 18.6034 7.52902 19.6812ZM5.82358 8.01696C4.67422 8.0292 3.91342 7.23648 3.91582 6.24384C3.91246 3.89496 7.74382 3.86856 7.75366 6.24408C7.75366 7.2288 7.01302 8.01696 5.82358 8.01696ZM19.8314 19.6812H16.4201V14.1912C16.4201 12.8114 15.9259 11.8704 14.6918 11.8704C13.4249 11.9146 12.7953 12.8974 12.8289 13.9505V19.6814L9.41734 19.6817C9.41734 19.6817 9.46222 10.3812 9.41758 9.41856H12.8292L12.8064 10.9066C13.2554 10.206 14.0637 9.1776 15.9041 9.1776C18.1485 9.1776 19.8317 10.6445 19.8317 13.7969V19.6812H19.8314Z" fill="#007CFF"/>
</g>
<defs>
<clipPath id="clip0_2679_3392">
<rect width="24" height="24" fill="white"/>
</clipPath>
</defs>
</svg>
