<svg width="24" height="24" viewBox="0 0 24 24" fill="none" xmlns="http://www.w3.org/2000/svg">
<path d="M21.4661 2.74028C18.4582 3.98588 5.56131 9.32804 1.99779 10.7841C-0.392131 11.7168 1.00683 12.5911 1.00683 12.5911C1.00683 12.5911 3.04683 13.2904 4.79547 13.8151C6.54411 14.3397 7.47675 13.7568 7.47675 13.7568L15.6953 8.21924C18.6096 6.23756 17.9103 7.86956 17.2109 8.56892C15.6953 10.0845 13.189 12.4742 11.0907 14.3978C10.158 15.2138 10.6243 15.9134 11.0323 16.2631C12.5479 17.5454 16.6863 20.1684 16.9195 20.3433C18.151 21.215 20.5731 22.47 20.9415 19.8187L22.3988 10.6675C22.8651 7.5782 23.3314 4.72196 23.3897 3.90596C23.5644 1.92428 21.4661 2.74028 21.4661 2.74028Z" fill="#007CFF"/>
</svg>
