<svg width="24" height="24" viewBox="0 0 24 24" fill="none" xmlns="http://www.w3.org/2000/svg">
<path d="M22.9236 6.4773C22.6613 5.49018 21.8887 4.71258 20.9078 4.44882C19.1297 3.96906 12 3.96906 12 3.96906C12 3.96906 4.8703 3.96905 3.09238 4.44857C2.11126 4.71233 1.3387 5.48994 1.07662 6.47706C0.599976 8.26674 0.599976 11.9999 0.599976 11.9999C0.599976 11.9999 0.599976 15.7334 1.07638 17.5228C1.33846 18.5099 2.11102 19.2873 3.09214 19.5513C4.8703 20.0308 12 20.0308 12 20.0308C12 20.0308 19.1299 20.0308 20.9078 19.5513C21.8889 19.2873 22.6613 18.5099 22.9236 17.5228C23.4 15.7331 23.4 11.9999 23.4 11.9999C23.4 11.9999 23.4 8.26674 22.9236 6.4773ZM9.66814 15.3895V8.61041L15.6273 12.0002L9.66814 15.3895Z" fill="#007CFF"/>
</svg>
