<svg width="24" height="24" viewBox="0 0 24 24" fill="none" xmlns="http://www.w3.org/2000/svg">
<g clip-path="url(#clip0_2679_712)">
<path d="M12 1.5C11.9011 1.5 11.8044 1.52932 11.7222 1.58427C11.64 1.63921 11.5759 1.7173 11.5381 1.80866C11.5002 1.90002 11.4903 2.00055 11.5096 2.09755C11.5289 2.19454 11.5765 2.28363 11.6464 2.35355C11.7164 2.42348 11.8055 2.4711 11.9025 2.49039C11.9994 2.50969 12.1 2.49978 12.1913 2.46194C12.2827 2.4241 12.3608 2.36001 12.4157 2.27779C12.4707 2.19556 12.5 2.09889 12.5 2C12.5 1.86739 12.4473 1.74021 12.3536 1.64645C12.2598 1.55268 12.1326 1.5 12 1.5V1.5ZM17 0H7C6.33696 0 5.70107 0.263392 5.23223 0.732233C4.76339 1.20107 4.5 1.83696 4.5 2.5V21.5C4.5 21.8283 4.56466 22.1534 4.6903 22.4567C4.81594 22.76 5.00009 23.0356 5.23223 23.2678C5.46438 23.4999 5.73998 23.6841 6.04329 23.8097C6.34661 23.9353 6.6717 24 7 24H17C17.3283 24 17.6534 23.9353 17.9567 23.8097C18.26 23.6841 18.5356 23.4999 18.7678 23.2678C18.9999 23.0356 19.1841 22.76 19.3097 22.4567C19.4353 22.1534 19.5 21.8283 19.5 21.5V2.5C19.5 1.83696 19.2366 1.20107 18.7678 0.732233C18.2989 0.263392 17.663 0 17 0V0ZM18.5 21.5C18.5 21.8978 18.342 22.2794 18.0607 22.5607C17.7794 22.842 17.3978 23 17 23H7C6.60218 23 6.22064 22.842 5.93934 22.5607C5.65804 22.2794 5.5 21.8978 5.5 21.5V18H18.5V21.5ZM18.5 17H5.5V4H18.5V17ZM18.5 3H5.5V2.5C5.5 2.10218 5.65804 1.72064 5.93934 1.43934C6.22064 1.15804 6.60218 1 7 1H17C17.3978 1 17.7794 1.15804 18.0607 1.43934C18.342 1.72064 18.5 2.10218 18.5 2.5V3ZM12 22C12.2967 22 12.5867 21.912 12.8334 21.7472C13.08 21.5824 13.2723 21.3481 13.3858 21.074C13.4994 20.7999 13.5291 20.4983 13.4712 20.2074C13.4133 19.9164 13.2704 19.6491 13.0607 19.4393C12.8509 19.2296 12.5836 19.0867 12.2926 19.0288C12.0017 18.9709 11.7001 19.0007 11.426 19.1142C11.1519 19.2277 10.9176 19.42 10.7528 19.6666C10.588 19.9133 10.5 20.2033 10.5 20.5C10.5 20.8978 10.658 21.2794 10.9393 21.5607C11.2206 21.842 11.6022 22 12 22ZM12 20C12.0989 20 12.1956 20.0293 12.2778 20.0843C12.36 20.1392 12.4241 20.2173 12.4619 20.3087C12.4998 20.4 12.5097 20.5006 12.4904 20.5975C12.4711 20.6945 12.4235 20.7836 12.3536 20.8536C12.2836 20.9235 12.1945 20.9711 12.0975 20.9904C12.0006 21.0097 11.9 20.9998 11.8087 20.9619C11.7173 20.9241 11.6392 20.86 11.5843 20.7778C11.5293 20.6956 11.5 20.5989 11.5 20.5C11.5 20.3674 11.5527 20.2402 11.6464 20.1464C11.7402 20.0527 11.8674 20 12 20Z" fill="black"/>
</g>
<defs>
<clipPath id="clip0_2679_712">
<rect width="24" height="24" fill="white"/>
</clipPath>
</defs>
</svg>
