<svg width="24" height="24" viewBox="0 0 24 24" fill="none" xmlns="http://www.w3.org/2000/svg">
<g clip-path="url(#clip0_2679_1099)">
<path d="M19.47 8.68001L16.47 0.680011C16.425 0.591398 16.3583 0.515601 16.2761 0.459658C16.1939 0.403715 16.099 0.369438 16 0.360011C13.3153 -0.0890385 10.5747 -0.0890385 7.89 0.360011C7.80427 0.375611 7.72411 0.413347 7.65745 0.469477C7.5908 0.525608 7.53997 0.598184 7.51001 0.680011L4.51001 8.68001C4.48377 8.75093 4.47396 8.82687 4.48131 8.90212C4.48867 8.97738 4.51299 9.04998 4.55246 9.11448C4.59193 9.17897 4.64551 9.23368 4.70917 9.27447C4.77283 9.31527 4.84492 9.3411 4.92001 9.35001C6.41001 9.54001 8.17001 9.65001 10.01 9.70001C10.0595 10.0966 10.2267 10.4693 10.49 10.77V20C9.65854 20.1179 8.89747 20.5317 8.34643 21.1654C7.79538 21.7991 7.49131 22.6102 7.49 23.45C7.48289 23.5206 7.49087 23.5919 7.51343 23.6592C7.53599 23.7264 7.57261 23.7881 7.62085 23.8401C7.66909 23.8922 7.72785 23.9333 7.79322 23.9609C7.85859 23.9885 7.92908 24.0018 8.00001 24H16C16.1326 24 16.2598 23.9473 16.3536 23.8536C16.4473 23.7598 16.5 23.6326 16.5 23.5C16.4987 22.6602 16.1946 21.8491 15.6436 21.2154C15.0925 20.5817 14.3315 20.1679 13.5 20.05V10.78C13.7724 10.4791 13.9468 10.1024 14 9.70001C15.84 9.70001 17.6 9.54001 19.09 9.35001C19.1651 9.3411 19.2372 9.31527 19.3008 9.27447C19.3645 9.23368 19.4181 9.17897 19.4576 9.11448C19.497 9.04998 19.5213 8.97738 19.5287 8.90212C19.5361 8.82687 19.5262 8.75093 19.5 8.68001H19.47ZM15.45 23H8.55001C8.667 22.4362 8.97431 21.9297 9.42038 21.5656C9.86646 21.2015 10.4242 21.0018 11 21H13C13.5758 21.0018 14.1336 21.2015 14.5796 21.5656C15.0257 21.9297 15.333 22.4362 15.45 23ZM11.33 10.21C11.1887 10.0792 11.0909 9.90817 11.05 9.72001H12.95C12.9047 9.91159 12.8038 10.0855 12.66 10.22C12.4756 10.3817 12.2383 10.47 11.9931 10.4682C11.7479 10.4663 11.5119 10.3745 11.33 10.21ZM12.5 11.41V20H11.5V11.41C11.8265 11.5056 12.1735 11.5056 12.5 11.41ZM5.69001 8.41001L8.37 1.31001C10.7787 0.933709 13.2313 0.933709 15.64 1.31001L18.31 8.44001C14.1127 8.83779 9.88727 8.83779 5.69001 8.44001V8.41001Z" fill="black"/>
</g>
<defs>
<clipPath id="clip0_2679_1099">
<rect width="24" height="24" fill="white"/>
</clipPath>
</defs>
</svg>
