<svg width="24" height="24" viewBox="0 0 24 24" fill="none" xmlns="http://www.w3.org/2000/svg">
<g clip-path="url(#clip0_2679_1106)">
<path d="M0.280018 2.72L1.28002 3.22C1.39657 3.26853 1.52716 3.27118 1.64557 3.22741C1.76399 3.18364 1.86147 3.0967 1.91844 2.98403C1.9754 2.87137 1.98764 2.74132 1.95269 2.62001C1.91774 2.4987 1.83819 2.39509 1.73002 2.33L0.730018 1.83C0.671105 1.79455 0.605513 1.77163 0.537342 1.76268C0.46917 1.75373 0.399885 1.75893 0.333815 1.77796C0.267746 1.797 0.206312 1.82945 0.153352 1.8733C0.100393 1.91715 0.0570471 1.97145 0.0260227 2.03281C-0.00500175 2.09417 -0.0230375 2.16127 -0.0269576 2.22992C-0.0308778 2.29856 -0.0205979 2.36728 0.00323948 2.43177C0.0270769 2.49626 0.0639594 2.55514 0.111582 2.60474C0.159205 2.65433 0.216545 2.69357 0.280018 2.72ZM1.28002 6.33L0.280018 6.83C0.171844 6.89509 0.0922967 6.9987 0.0573479 7.12001C0.022399 7.24132 0.0346357 7.37137 0.0916013 7.48403C0.148567 7.5967 0.246044 7.68364 0.364462 7.72741C0.48288 7.77118 0.613472 7.76853 0.730018 7.72L1.73002 7.22C1.83819 7.15491 1.91774 7.05131 1.95269 6.92999C1.98764 6.80868 1.9754 6.67864 1.91844 6.56597C1.86147 6.45331 1.76399 6.36636 1.64557 6.32259C1.52716 6.27882 1.39657 6.28147 1.28002 6.33ZM1.50002 4.27H0.500018C0.36741 4.27 0.240233 4.32268 0.146465 4.41645C0.0526968 4.51022 1.83769e-05 4.63739 1.83769e-05 4.77C1.83769e-05 4.90261 0.0526968 5.02979 0.146465 5.12356C0.240233 5.21732 0.36741 5.27 0.500018 5.27H1.50002C1.63263 5.27 1.7598 5.21732 1.85357 5.12356C1.94734 5.02979 2.00002 4.90261 2.00002 4.77C2.00002 4.63739 1.94734 4.51022 1.85357 4.41645C1.7598 4.32268 1.63263 4.27 1.50002 4.27ZM22.35 0.820002L21.43 0.480002C19.2121 -0.333166 16.8089 -0.499626 14.5 2.08616e-06L6.57002 1.74L5.17002 1C4.93766 0.883834 4.67912 0.83 4.41971 0.843773C4.1603 0.857547 3.90891 0.938454 3.69016 1.07857C3.47142 1.21869 3.29281 1.41322 3.17183 1.64311C3.05085 1.87299 2.99165 2.13036 3.00002 2.39V7.15C3.00037 7.40544 3.06594 7.65655 3.19052 7.87954C3.3151 8.10253 3.49457 8.29002 3.7119 8.42423C3.92924 8.55843 4.17725 8.63492 4.43242 8.64643C4.68759 8.65794 4.94148 8.6041 5.17002 8.49L6.56002 7.79L14.5 9.52L15 9.6V11.8C15.0031 12.3882 14.9085 12.9728 14.72 13.53V13.59L14.36 14.68C14.1233 15.3515 14.0016 16.058 14 16.77C13.9969 17.1587 14.0858 17.5425 14.2596 17.8902C14.4335 18.2378 14.6872 18.5393 15 18.77V19.77C15.0009 20.0795 15.0975 20.3811 15.2765 20.6335C15.4555 20.886 15.7082 21.0768 16 21.18V21.77C16 22.433 16.2634 23.0689 16.7323 23.5378C17.2011 24.0066 17.837 24.27 18.5 24.27H19.5C19.6326 24.27 19.7598 24.2173 19.8536 24.1236C19.9473 24.0298 20 23.9026 20 23.77C20 23.6374 19.9473 23.5102 19.8536 23.4164C19.7598 23.3227 19.6326 23.27 19.5 23.27H18.5C18.1022 23.27 17.7207 23.112 17.4394 22.8307C17.1581 22.5494 17 22.1678 17 21.77V21.18C17.2918 21.0768 17.5445 20.886 17.7236 20.6335C17.9026 20.3811 17.9991 20.0795 18 19.77V18.77C18.0935 18.7014 18.1806 18.6244 18.26 18.54C18.4993 18.3061 18.6884 18.0258 18.8156 17.7163C18.9428 17.4068 19.0056 17.0746 19 16.74C18.9958 16.1485 19.0904 15.5604 19.28 15L19.66 13.85C19.8862 13.1902 20.0011 12.4975 20 11.8V9.47C20.4844 9.36187 20.9619 9.22496 21.43 9.06L22.35 8.72C22.8324 8.54408 23.2492 8.22446 23.5442 7.80425C23.8393 7.38404 23.9984 6.88345 24 6.37V3.17C23.9984 2.65656 23.8393 2.15597 23.5442 1.73576C23.2492 1.31554 22.8324 0.995922 22.35 0.820002ZM6.00002 7L4.72002 7.6C4.64371 7.63739 4.55914 7.65471 4.47428 7.65034C4.38942 7.64597 4.30707 7.62004 4.23502 7.575C4.16296 7.52997 4.10357 7.46731 4.06245 7.39295C4.02134 7.31859 3.99985 7.23497 4.00002 7.15V2.39C4.00524 2.31037 4.02983 2.23321 4.07166 2.16524C4.11348 2.09727 4.17128 2.04055 4.24002 2C4.31784 1.95029 4.40771 1.92264 4.50002 1.92C4.57624 1.91933 4.65157 1.93645 4.72002 1.97L6.00002 2.58V7ZM14.72 8.58L7.00002 6.87V2.67L14.72 1C15.7962 0.763135 16.9008 0.682307 18 0.760002V8.76H17.59H16.48C16.18 8.76 15.88 8.76 15.57 8.67C15.28 8.65 15 8.6 14.72 8.54V8.58ZM17 19.77C17 19.9026 16.9473 20.0298 16.8536 20.1236C16.7598 20.2173 16.6326 20.27 16.5 20.27C16.3674 20.27 16.2402 20.2173 16.1465 20.1236C16.0527 20.0298 16 19.9026 16 19.77V19.2C16.3275 19.2883 16.6725 19.2883 17 19.2V19.77ZM19 11.77C19.0031 12.3582 18.9085 12.9428 18.72 13.5L18.34 14.65C18.1068 15.3322 17.9918 16.0491 18 16.77C18.0003 16.9703 17.9596 17.1685 17.8805 17.3525C17.8014 17.5365 17.6855 17.7024 17.54 17.84C17.4553 17.9306 17.3576 18.0082 17.25 18.07C17.021 18.1988 16.7627 18.2664 16.5 18.2664C16.2373 18.2664 15.979 18.1988 15.75 18.07C15.5181 17.935 15.3263 17.7406 15.1945 17.5068C15.0627 17.273 14.9956 17.0083 15 16.74C15 16.58 15 16.43 15 16.27H15.46C15.5926 16.27 15.7198 16.2173 15.8136 16.1236C15.9073 16.0298 15.96 15.9026 15.96 15.77C15.96 15.6374 15.9073 15.5102 15.8136 15.4164C15.7198 15.3227 15.5926 15.27 15.46 15.27H15.18C15.18 15.18 15.18 15.09 15.25 15.01L15.49 14.27H16C16.1326 14.27 16.2598 14.2173 16.3536 14.1236C16.4473 14.0298 16.5 13.9026 16.5 13.77C16.5 13.6374 16.4473 13.5102 16.3536 13.4164C16.2598 13.3227 16.1326 13.27 16 13.27H15.81C15.8868 12.9412 15.937 12.6068 15.96 12.27H16.5C16.6326 12.27 16.7598 12.2173 16.8536 12.1236C16.9473 12.0298 17 11.9026 17 11.77C17 11.6374 16.9473 11.5102 16.8536 11.4164C16.7598 11.3227 16.6326 11.27 16.5 11.27H16V9.75H16.28C16.57 9.75 16.87 9.75 17.16 9.75H17.66C18.06 9.75 18.46 9.71334 18.86 9.64H19V11.77ZM23 6.34C22.9991 6.64947 22.9026 6.9511 22.7236 7.20353C22.5445 7.45597 22.2918 7.64685 22 7.75L21.08 8.09C20.5327 8.28883 19.9711 8.44595 19.4 8.56L19 8.62V0.890002C19.7121 1.00407 20.4118 1.18487 21.09 1.43L22.01 1.76C22.301 1.8644 22.5529 2.0556 22.7317 2.30775C22.9106 2.55991 23.0077 2.86088 23.01 3.17L23 6.34Z" fill="black"/>
</g>
<defs>
<clipPath id="clip0_2679_1106">
<rect width="24" height="24" fill="white"/>
</clipPath>
</defs>
</svg>
