<svg width="34" height="34" viewBox="0 0 34 34" fill="none" xmlns="http://www.w3.org/2000/svg">
<path d="M12.75 31.1666C13.5324 31.1666 14.1666 30.5324 14.1666 29.75C14.1666 28.9676 13.5324 28.3333 12.75 28.3333C11.9676 28.3333 11.3333 28.9676 11.3333 29.75C11.3333 30.5324 11.9676 31.1666 12.75 31.1666Z" stroke="#007CFF" stroke-width="2" stroke-linecap="round" stroke-linejoin="round"/>
<path d="M28.3334 31.1666C29.1158 31.1666 29.75 30.5324 29.75 29.75C29.75 28.9676 29.1158 28.3333 28.3334 28.3333C27.5509 28.3333 26.9167 28.9676 26.9167 29.75C26.9167 30.5324 27.5509 31.1666 28.3334 31.1666Z" stroke="#007CFF" stroke-width="2" stroke-linecap="round" stroke-linejoin="round"/>
<path d="M1.41669 1.41669H7.08335L10.88 20.3859C11.0096 21.0381 11.3644 21.624 11.8824 22.0409C12.4004 22.4579 13.0485 22.6794 13.7134 22.6667H27.4834C28.1482 22.6794 28.7963 22.4579 29.3143 22.0409C29.8323 21.624 30.1871 21.0381 30.3167 20.3859L32.5834 8.50002H8.50002" stroke="#007CFF" stroke-width="2" stroke-linecap="round" stroke-linejoin="round"/>
</svg>
