<svg width="24" height="24" viewBox="0 0 24 24" fill="none" xmlns="http://www.w3.org/2000/svg">
<g clip-path="url(#clip0_2679_1043)">
<path d="M21.5 1.5H2.5C1.83696 1.5 1.20107 1.76339 0.732233 2.23223C0.263392 2.70107 0 3.33696 0 4L0 16C0 16.663 0.263392 17.2989 0.732233 17.7678C1.20107 18.2366 1.83696 18.5 2.5 18.5H9C8.98939 18.8969 8.88402 19.2856 8.69267 19.6335C8.50131 19.9814 8.22953 20.2785 7.9 20.5L6.22 21.58C6.12868 21.639 6.05905 21.7261 6.02167 21.8281C5.98429 21.9302 5.98119 22.0417 6.01284 22.1457C6.04448 22.2496 6.10916 22.3405 6.19706 22.4044C6.28497 22.4684 6.39132 22.5019 6.5 22.5H17.5C17.6087 22.5019 17.715 22.4684 17.8029 22.4044C17.8908 22.3405 17.9555 22.2496 17.9872 22.1457C18.0188 22.0417 18.0157 21.9302 17.9783 21.8281C17.9409 21.7261 17.8713 21.639 17.78 21.58L16.12 20.47C15.7905 20.2485 15.5187 19.9514 15.3273 19.6035C15.136 19.2556 15.0306 18.8669 15.02 18.47H21.5C22.1579 18.47 22.7893 18.2108 23.2572 17.7484C23.7252 17.286 23.9921 16.6578 24 16V4C24 3.6717 23.9353 3.34661 23.8097 3.04329C23.6841 2.73998 23.4999 2.46438 23.2678 2.23223C23.0356 2.00009 22.76 1.81594 22.4567 1.6903C22.1534 1.56466 21.8283 1.5 21.5 1.5ZM15.56 21.31L15.85 21.5H8.15L8.44 21.31C8.90617 21.0009 9.29123 20.5843 9.56272 20.0953C9.83421 19.6062 9.98418 19.0591 10 18.5H14C14.0158 19.0591 14.1658 19.6062 14.4373 20.0953C14.7088 20.5843 15.0938 21.0009 15.56 21.31ZM23 16C23 16.3978 22.842 16.7794 22.5607 17.0607C22.2794 17.342 21.8978 17.5 21.5 17.5H2.5C2.10218 17.5 1.72064 17.342 1.43934 17.0607C1.15804 16.7794 1 16.3978 1 16V15.5H23V16ZM23 14.5H1V4C1 3.60218 1.15804 3.22064 1.43934 2.93934C1.72064 2.65804 2.10218 2.5 2.5 2.5H21.5C21.8978 2.5 22.2794 2.65804 22.5607 2.93934C22.842 3.22064 23 3.60218 23 4V14.5Z" fill="black"/>
</g>
<defs>
<clipPath id="clip0_2679_1043">
<rect width="24" height="24" fill="white"/>
</clipPath>
</defs>
</svg>
