<svg width="24" height="24" viewBox="0 0 24 24" fill="none" xmlns="http://www.w3.org/2000/svg">
<path d="M16.5 10H3.5C3.36739 10 3.24021 10.0527 3.14645 10.1464C3.05268 10.2402 3 10.3674 3 10.5C3 10.6326 3.05268 10.7598 3.14645 10.8536C3.24021 10.9473 3.36739 11 3.5 11H16.5C16.6326 11 16.7598 10.9473 16.8536 10.8536C16.9473 10.7598 17 10.6326 17 10.5C17 10.3674 16.9473 10.2402 16.8536 10.1464C16.7598 10.0527 16.6326 10 16.5 10ZM19.5 9C19.2033 9 18.9133 9.08797 18.6666 9.2528C18.42 9.41762 18.2277 9.65189 18.1142 9.92597C18.0007 10.2001 17.9709 10.5017 18.0288 10.7926C18.0867 11.0836 18.2296 11.3509 18.4393 11.5607C18.6491 11.7704 18.9164 11.9133 19.2074 11.9712C19.4983 12.0291 19.7999 11.9994 20.074 11.8858C20.3481 11.7723 20.5824 11.58 20.7472 11.3334C20.912 11.0867 21 10.7967 21 10.5C21 10.1022 20.842 9.72064 20.5607 9.43934C20.2794 9.15804 19.8978 9 19.5 9ZM19.5 11C19.4011 11 19.3044 10.9707 19.2222 10.9157C19.14 10.8608 19.0759 10.7827 19.0381 10.6913C19.0002 10.6 18.9903 10.4994 19.0096 10.4025C19.0289 10.3055 19.0765 10.2164 19.1464 10.1464C19.2164 10.0765 19.3055 10.0289 19.4025 10.0096C19.4994 9.99031 19.6 10.0002 19.6913 10.0381C19.7827 10.0759 19.8608 10.14 19.9157 10.2222C19.9707 10.3044 20 10.4011 20 10.5C20 10.6326 19.9473 10.7598 19.8536 10.8536C19.7598 10.9473 19.6326 11 19.5 11ZM20.5 7H18V4.5C18.0013 4.48002 18.0013 4.45998 18 4.44V4.37C17.9809 4.28411 17.9395 4.20477 17.88 4.14L14.88 1.14C14.8125 1.06947 14.7254 1.02072 14.63 1H8.5C7.83696 1 7.20107 1.26339 6.73223 1.73223C6.26339 2.20107 6 2.83696 6 3.5V7H3.5C2.83696 7 2.20107 7.26339 1.73223 7.73223C1.26339 8.20107 1 8.83696 1 9.5V17.5C1 17.8978 1.15804 18.2794 1.43934 18.5607C1.72064 18.842 2.10218 19 2.5 19H6V20.5C6 21.163 6.26339 21.7989 6.73223 22.2678C7.20107 22.7366 7.83696 23 8.5 23H15.5C16.163 23 16.7989 22.7366 17.2678 22.2678C17.7366 21.7989 18 21.163 18 20.5V19H20.5C21.163 19 21.7989 18.7366 22.2678 18.2678C22.7366 17.7989 23 17.163 23 16.5V9.5C23 8.83696 22.7366 8.20107 22.2678 7.73223C21.7989 7.26339 21.163 7 20.5 7ZM15 2.71L16.29 4H15.5C15.3674 4 15.2402 3.94732 15.1464 3.85355C15.0527 3.75979 15 3.63261 15 3.5V2.71ZM7 3.5C7 3.10218 7.15804 2.72064 7.43934 2.43934C7.72064 2.15804 8.10218 2 8.5 2H14V3.5C14 3.89782 14.158 4.27936 14.4393 4.56066C14.7206 4.84196 15.1022 5 15.5 5H17V7H7V3.5ZM17 20.5C17 20.8978 16.842 21.2794 16.5607 21.5607C16.2794 21.842 15.8978 22 15.5 22H8.5C8.10218 22 7.72064 21.842 7.43934 21.5607C7.15804 21.2794 7 20.8978 7 20.5V17H17V20.5ZM20 18H18V16.5C18 16.3674 17.9473 16.2402 17.8536 16.1464C17.7598 16.0527 17.6326 16 17.5 16H6.5C6.36739 16 6.24021 16.0527 6.14645 16.1464C6.05268 16.2402 6 16.3674 6 16.5V18H4V15.5C4 15.1022 4.15804 14.7206 4.43934 14.4393C4.72064 14.158 5.10218 14 5.5 14H18.5C18.8978 14 19.2794 14.158 19.5607 14.4393C19.842 14.7206 20 15.1022 20 15.5V18ZM22 16.5C21.9991 16.8095 21.9026 17.1111 21.7235 17.3635C21.5445 17.616 21.2918 17.8068 21 17.91V15.5C21 14.837 20.7366 14.2011 20.2678 13.7322C19.7989 13.2634 19.163 13 18.5 13H5.5C4.83696 13 4.20107 13.2634 3.73223 13.7322C3.26339 14.2011 3 14.837 3 15.5V18H2.5C2.36739 18 2.24021 17.9473 2.14645 17.8536C2.05268 17.7598 2 17.6326 2 17.5V9.5C2 9.10218 2.15804 8.72064 2.43934 8.43934C2.72064 8.15804 3.10218 8 3.5 8H20.5C20.8978 8 21.2794 8.15804 21.5607 8.43934C21.842 8.72064 22 9.10218 22 9.5V16.5ZM8.5 19H15.5C15.6326 19 15.7598 18.9473 15.8536 18.8536C15.9473 18.7598 16 18.6326 16 18.5C16 18.3674 15.9473 18.2402 15.8536 18.1464C15.7598 18.0527 15.6326 18 15.5 18H8.5C8.36739 18 8.24021 18.0527 8.14645 18.1464C8.05268 18.2402 8 18.3674 8 18.5C8 18.6326 8.05268 18.7598 8.14645 18.8536C8.24021 18.9473 8.36739 19 8.5 19ZM8.5 21H15.5C15.6326 21 15.7598 20.9473 15.8536 20.8536C15.9473 20.7598 16 20.6326 16 20.5C16 20.3674 15.9473 20.2402 15.8536 20.1464C15.7598 20.0527 15.6326 20 15.5 20H8.5C8.36739 20 8.24021 20.0527 8.14645 20.1464C8.05268 20.2402 8 20.3674 8 20.5C8 20.6326 8.05268 20.7598 8.14645 20.8536C8.24021 20.9473 8.36739 21 8.5 21Z" fill="black"/>
</svg>
