<svg width="24" height="24" viewBox="0 0 24 24" fill="none" xmlns="http://www.w3.org/2000/svg">
<g clip-path="url(#clip0_2679_1057)">
<path d="M16.86 3H16.3L16.36 2.5V1.5C16.36 1.10218 16.202 0.720645 15.9207 0.439341C15.6394 0.158036 15.2578 1.00346e-06 14.86 1.00346e-06H6.86001C6.77504 -0.000169214 6.69143 0.0213187 6.61706 0.0624362C6.5427 0.103554 6.48005 0.162944 6.43501 0.235001C6.38998 0.307057 6.36405 0.389402 6.35967 0.474262C6.3553 0.559122 6.37262 0.643696 6.41001 0.720001L7.41001 2.64L8.29001 9.64C8.33244 9.91836 8.45392 10.1787 8.64001 10.39C8.43716 10.5793 8.29162 10.8219 8.22001 11.09L5.72001 21.09C5.6571 21.3113 5.64594 21.5441 5.68739 21.7704C5.72884 21.9967 5.8218 22.2105 5.95907 22.3951C6.09634 22.5798 6.27425 22.7304 6.47902 22.8352C6.6838 22.9401 6.90996 22.9965 7.14001 23H7.36001V23.5C7.36001 23.6326 7.41269 23.7598 7.50646 23.8536C7.60023 23.9473 7.7274 24 7.86001 24C7.99262 24 8.1198 23.9473 8.21357 23.8536C8.30733 23.7598 8.36001 23.6326 8.36001 23.5V23H15.36V23.5C15.36 23.6326 15.4127 23.7598 15.5065 23.8536C15.6002 23.9473 15.7274 24 15.86 24C15.9926 24 16.1198 23.9473 16.2136 23.8536C16.3073 23.7598 16.36 23.6326 16.36 23.5V23H16.58C16.8046 22.9946 17.025 22.9388 17.2252 22.8368C17.4253 22.7348 17.5999 22.5892 17.7362 22.4107C17.8725 22.2321 17.967 22.0253 18.0126 21.8053C18.0583 21.5854 18.054 21.358 18 21.14L15.5 11.14C15.4284 10.8719 15.2829 10.6293 15.08 10.44C15.2661 10.2287 15.3876 9.96836 15.43 9.69L16.17 4H16.86C16.9926 4 17.1198 4.05268 17.2136 4.14645C17.3073 4.24022 17.36 4.36739 17.36 4.5V8.5C17.36 8.63261 17.4127 8.75979 17.5065 8.85355C17.6002 8.94732 17.7274 9 17.86 9C17.9926 9 18.1198 8.94732 18.2136 8.85355C18.3073 8.75979 18.36 8.63261 18.36 8.5V4.5C18.36 4.30302 18.3212 4.10796 18.2458 3.92598C18.1704 3.74399 18.06 3.57863 17.9207 3.43934C17.7814 3.30005 17.616 3.18956 17.434 3.11418C17.252 3.0388 17.057 3 16.86 3ZM17.06 21.38C17.0783 21.454 17.0794 21.5313 17.0633 21.6058C17.0472 21.6804 17.0142 21.7502 16.9669 21.8101C16.9196 21.8699 16.8593 21.9181 16.7905 21.951C16.7217 21.984 16.6463 22.0007 16.57 22H7.14001C7.06375 22.0007 6.98834 21.984 6.91955 21.951C6.85075 21.9181 6.7904 21.8699 6.74311 21.8101C6.69583 21.7502 6.66285 21.6804 6.64671 21.6058C6.63058 21.5313 6.63171 21.454 6.65001 21.38L9.15001 11.38C9.17701 11.2708 9.24007 11.1738 9.32899 11.1049C9.41791 11.0359 9.52749 10.999 9.64001 11H14.08C14.1925 10.999 14.3021 11.0359 14.391 11.1049C14.48 11.1738 14.543 11.2708 14.57 11.38L17.06 21.38ZM14.47 9.56C14.456 9.67695 14.4012 9.78522 14.3153 9.86571C14.2293 9.94621 14.1176 9.99376 14 10H9.74001C9.61717 10.0009 9.49831 9.95652 9.40609 9.87537C9.31387 9.79422 9.25475 9.68196 9.24001 9.56L8.43001 3H15.3L14.47 9.56ZM8.17001 2L7.67001 1H14.86C14.9926 1 15.1198 1.05268 15.2136 1.14645C15.3073 1.24022 15.36 1.36739 15.36 1.5V2H8.17001ZM11.86 17C11.5633 17 11.2733 17.088 11.0267 17.2528C10.78 17.4176 10.5877 17.6519 10.4742 17.926C10.3607 18.2001 10.331 18.5017 10.3888 18.7926C10.4467 19.0836 10.5896 19.3509 10.7994 19.5607C11.0091 19.7704 11.2764 19.9133 11.5674 19.9712C11.8583 20.0291 12.1599 19.9994 12.434 19.8858C12.7081 19.7723 12.9424 19.58 13.1072 19.3334C13.272 19.0867 13.36 18.7967 13.36 18.5C13.36 18.1022 13.202 17.7206 12.9207 17.4393C12.6394 17.158 12.2578 17 11.86 17ZM11.86 19C11.7611 19 11.6645 18.9707 11.5822 18.9157C11.5 18.8608 11.4359 18.7827 11.3981 18.6913C11.3602 18.6 11.3503 18.4994 11.3696 18.4025C11.3889 18.3055 11.4365 18.2164 11.5065 18.1464C11.5764 18.0765 11.6655 18.0289 11.7625 18.0096C11.8595 17.9903 11.96 18.0002 12.0514 18.0381C12.1427 18.0759 12.2208 18.14 12.2757 18.2222C12.3307 18.3044 12.36 18.4011 12.36 18.5C12.36 18.6326 12.3073 18.7598 12.2136 18.8536C12.1198 18.9473 11.9926 19 11.86 19Z" fill="black"/>
</g>
<defs>
<clipPath id="clip0_2679_1057">
<rect width="24" height="24" fill="white"/>
</clipPath>
</defs>
</svg>
