<svg width="24" height="24" viewBox="0 0 24 24" fill="none" xmlns="http://www.w3.org/2000/svg">
<g clip-path="url(#clip0_2679_1064)">
<path d="M4.50998 17.09C4.38533 17.045 4.2479 17.0513 4.12789 17.1075C4.00788 17.1638 3.91511 17.2654 3.86998 17.39L3.18998 19.27C3.16548 19.3322 3.15369 19.3987 3.15532 19.4655C3.15696 19.5324 3.17197 19.5982 3.19949 19.6591C3.227 19.72 3.26646 19.7748 3.31551 19.8202C3.36457 19.8656 3.42224 19.9008 3.48511 19.9235C3.54797 19.9462 3.61476 19.9561 3.68152 19.9526C3.74827 19.9491 3.81365 19.9322 3.87377 19.903C3.9339 19.8738 3.98755 19.8328 4.03156 19.7825C4.07556 19.7321 4.10903 19.6735 4.12998 19.61L4.80998 17.73C4.85502 17.6054 4.84871 17.4679 4.79246 17.3479C4.7362 17.2279 4.6346 17.1351 4.50998 17.09ZM15.74 17C15.6748 17.0109 15.6125 17.0346 15.5566 17.0697C15.5006 17.1048 15.4522 17.1506 15.4141 17.2046C15.376 17.2585 15.3489 17.3194 15.3345 17.3839C15.32 17.4483 15.3185 17.515 15.33 17.58L15.68 19.58C15.701 19.6948 15.7615 19.7986 15.851 19.8735C15.9404 19.9484 16.0533 19.9896 16.17 19.99H16.26C16.3251 19.9791 16.3875 19.9555 16.4434 19.9203C16.4993 19.8852 16.5478 19.8394 16.5859 19.7855C16.624 19.7315 16.6511 19.6706 16.6655 19.6062C16.6799 19.5417 16.6815 19.475 16.67 19.41L16.32 17.41C16.3091 17.3449 16.2854 17.2825 16.2503 17.2266C16.2152 17.1707 16.1694 17.1222 16.1154 17.0841C16.0615 17.046 16.0006 17.0189 15.9361 17.0045C15.8717 16.9901 15.805 16.9885 15.74 17ZM8.25998 17C8.19495 16.9885 8.12828 16.9901 8.06384 17.0045C7.9994 17.0189 7.93846 17.046 7.88453 17.0841C7.8306 17.1222 7.78476 17.1707 7.74965 17.2266C7.71455 17.2825 7.69087 17.3449 7.67998 17.41L7.32998 19.41C7.31851 19.475 7.32004 19.5417 7.33448 19.6062C7.34892 19.6706 7.37598 19.7315 7.4141 19.7855C7.45222 19.8394 7.50064 19.8852 7.55658 19.9203C7.61251 19.9555 7.67485 19.9791 7.73998 19.99H7.82998C7.94667 19.9896 8.05952 19.9484 8.14901 19.8735C8.2385 19.7986 8.29898 19.6948 8.31998 19.58L8.66998 17.58C8.68145 17.515 8.67992 17.4483 8.66549 17.3839C8.65105 17.3194 8.62399 17.2585 8.58587 17.2046C8.54775 17.1506 8.49932 17.1048 8.44339 17.0697C8.38745 17.0346 8.32512 17.0109 8.25998 17ZM12 17C11.8674 17 11.7402 17.0527 11.6464 17.1465C11.5527 17.2402 11.5 17.3674 11.5 17.5V19.5C11.5 19.6326 11.5527 19.7598 11.6464 19.8536C11.7402 19.9473 11.8674 20 12 20C12.1326 20 12.2598 19.9473 12.3535 19.8536C12.4473 19.7598 12.5 19.6326 12.5 19.5V17.5C12.5 17.3674 12.4473 17.2402 12.3535 17.1465C12.2598 17.0527 12.1326 17 12 17ZM20.13 17.39C20.109 17.3265 20.0756 17.2679 20.0316 17.2176C19.9875 17.1672 19.9339 17.1263 19.8738 17.097C19.8137 17.0678 19.7483 17.0509 19.6815 17.0474C19.6148 17.0439 19.548 17.0538 19.4851 17.0765C19.4222 17.0993 19.3646 17.1344 19.3155 17.1798C19.2665 17.2252 19.227 17.28 19.1995 17.3409C19.172 17.4018 19.157 17.4677 19.1553 17.5345C19.1537 17.6013 19.1655 17.6678 19.19 17.73L19.87 19.61C19.9177 19.7311 20.0108 19.8288 20.1294 19.8824C20.248 19.936 20.3828 19.9412 20.5052 19.8969C20.6276 19.8526 20.728 19.7624 20.7849 19.6453C20.8418 19.5283 20.8508 19.3936 20.81 19.27L20.13 17.39ZM23.36 4.84001C23.12 4.5745 22.8268 4.36248 22.4994 4.21776C22.1721 4.07304 21.8179 3.99885 21.46 4.00001H2.53998C2.18375 4.00025 1.83152 4.07511 1.506 4.21979C1.18047 4.36447 0.888867 4.57575 0.649984 4.84001C0.413845 5.09505 0.233952 5.39688 0.121975 5.72593C0.00999712 6.05497 -0.0315651 6.40387 -1.61706e-05 6.75001L0.609984 12.75C0.677166 13.374 0.97476 13.9504 1.44454 14.3666C1.91431 14.7827 2.52246 15.0086 3.14998 15H3.76998H3.91998H4.05998H20.85C21.4741 15.0036 22.0773 14.7755 22.5428 14.3598C23.0084 13.9442 23.3031 13.3705 23.37 12.75L23.98 6.75001C24.0155 6.40602 23.9787 6.05839 23.872 5.72945C23.7652 5.40052 23.5908 5.09755 23.36 4.84001ZM4.38998 14C4.42659 13.7217 4.56373 13.4664 4.77556 13.2822C4.98739 13.098 5.25928 12.9976 5.53998 13H18.46C18.7396 12.9979 19.0102 13.0986 19.2204 13.283C19.4306 13.4673 19.5657 13.7225 19.6 14H4.38998ZM22.39 12.65C22.3477 13.0265 22.1663 13.3736 21.8815 13.6233C21.5966 13.873 21.2287 14.0074 20.85 14H20.62C20.582 13.4562 20.3388 12.9471 19.9396 12.5758C19.5404 12.2045 19.0151 11.9987 18.47 12H5.53998C5.21884 11.9985 4.9014 12.0687 4.61078 12.2053C4.32016 12.342 4.06367 12.5417 3.85998 12.79C3.58065 13.1343 3.41628 13.5575 3.38998 14H3.14998C2.77293 14.0049 2.40755 13.8694 2.1248 13.6199C1.84205 13.3704 1.66213 13.0247 1.61998 12.65L1.44998 11H22.55L22.39 12.65ZM22.65 10H1.34998L0.999984 6.65001C0.978809 6.44391 1.00174 6.23566 1.06726 6.03911C1.13278 5.84255 1.23938 5.66219 1.37998 5.51001C1.5265 5.34809 1.70558 5.21895 1.90549 5.13106C2.10539 5.04317 2.32161 4.99851 2.53998 5.00001H21.46C21.6767 4.99992 21.891 5.04525 22.0891 5.1331C22.2871 5.22094 22.4646 5.34934 22.61 5.51001C22.7524 5.66134 22.8608 5.84131 22.9281 6.03791C22.9953 6.2345 23.0198 6.44319 23 6.65001L22.65 10ZM13.5 8.00001H10.5C10.3674 8.00001 10.2402 8.05269 10.1464 8.14646C10.0527 8.24023 9.99998 8.3674 9.99998 8.50001C9.99998 8.63262 10.0527 8.7598 10.1464 8.85357C10.2402 8.94734 10.3674 9.00001 10.5 9.00001H13.5C13.6326 9.00001 13.7598 8.94734 13.8535 8.85357C13.9473 8.7598 14 8.63262 14 8.50001C14 8.3674 13.9473 8.24023 13.8535 8.14646C13.7598 8.05269 13.6326 8.00001 13.5 8.00001Z" fill="black"/>
</g>
<defs>
<clipPath id="clip0_2679_1064">
<rect width="24" height="24" fill="white"/>
</clipPath>
</defs>
</svg>
