<svg width="24" height="24" viewBox="0 0 24 24" fill="none" xmlns="http://www.w3.org/2000/svg">
<g clip-path="url(#clip0_2679_1071)">
<path d="M20.5 13C20.2033 13 19.9133 13.088 19.6666 13.2528C19.42 13.4176 19.2277 13.6519 19.1142 13.926C19.0007 14.2001 18.9709 14.5017 19.0288 14.7926C19.0867 15.0836 19.2296 15.3509 19.4393 15.5607C19.6491 15.7704 19.9164 15.9133 20.2074 15.9712C20.4983 16.0291 20.7999 15.9994 21.074 15.8858C21.3481 15.7723 21.5824 15.58 21.7472 15.3334C21.912 15.0867 22 14.7967 22 14.5C22 14.1022 21.842 13.7206 21.5607 13.4393C21.2794 13.158 20.8978 13 20.5 13ZM20.5 15C20.4011 15 20.3044 14.9707 20.2222 14.9157C20.14 14.8608 20.0759 14.7827 20.0381 14.6913C20.0002 14.6 19.9903 14.4994 20.0096 14.4025C20.0289 14.3055 20.0765 14.2164 20.1464 14.1464C20.2164 14.0765 20.3055 14.0289 20.4025 14.0096C20.4994 13.9903 20.6 14.0002 20.6913 14.0381C20.7827 14.0759 20.8608 14.14 20.9157 14.2222C20.9707 14.3044 21 14.4011 21 14.5C21 14.6326 20.9473 14.7598 20.8536 14.8536C20.7598 14.9473 20.6326 15 20.5 15ZM21.5 4H2.5C1.83696 4 1.20107 4.26339 0.732233 4.73223C0.263392 5.20107 5.21142e-08 5.83696 5.21142e-08 6.5V15.5C-0.000117575 16.0763 0.198892 16.635 0.563347 17.0815C0.927802 17.5279 1.43532 17.8347 2 17.95V18.5C2 18.8978 2.15804 19.2794 2.43934 19.5607C2.72064 19.842 3.10218 20 3.5 20C3.89782 20 4.27936 19.842 4.56066 19.5607C4.84196 19.2794 5 18.8978 5 18.5V18H19V18.5C19 18.8978 19.158 19.2794 19.4393 19.5607C19.7206 19.842 20.1022 20 20.5 20C20.8978 20 21.2794 19.842 21.5607 19.5607C21.842 19.2794 22 18.8978 22 18.5V17.95C22.5647 17.8347 23.0722 17.5279 23.4367 17.0815C23.8011 16.635 24.0001 16.0763 24 15.5V6.5C24 6.1717 23.9353 5.84661 23.8097 5.54329C23.6841 5.23998 23.4999 4.96438 23.2678 4.73223C23.0356 4.50009 22.76 4.31594 22.4567 4.1903C22.1534 4.06466 21.8283 4 21.5 4ZM4 18.5C4 18.6326 3.94732 18.7598 3.85355 18.8536C3.75979 18.9473 3.63261 19 3.5 19C3.36739 19 3.24021 18.9473 3.14645 18.8536C3.05268 18.7598 3 18.6326 3 18.5V18H4V18.5ZM17 17H2.5C2.19053 16.9991 1.8889 16.9026 1.63647 16.7235C1.38404 16.5445 1.19316 16.2918 1.09 16H17V17ZM17 15H1V7H17V15ZM17 6H1.09C1.19316 5.70823 1.38404 5.4555 1.63647 5.27647C1.8889 5.09744 2.19053 5.00087 2.5 5H17V6ZM21 18.5C21 18.6326 20.9473 18.7598 20.8536 18.8536C20.7598 18.9473 20.6326 19 20.5 19C20.3674 19 20.2402 18.9473 20.1464 18.8536C20.0527 18.7598 20 18.6326 20 18.5V18H21V18.5ZM23 15.5C23 15.8978 22.842 16.2794 22.5607 16.5607C22.2794 16.842 21.8978 17 21.5 17H18V5H21.5C21.8978 5 22.2794 5.15804 22.5607 5.43934C22.842 5.72064 23 6.10218 23 6.5V15.5ZM15.17 13.5C15.3026 13.5 15.4298 13.4473 15.5236 13.3536C15.6173 13.2598 15.67 13.1326 15.67 13V9C15.67 8.86739 15.6173 8.74021 15.5236 8.64645C15.4298 8.55268 15.3026 8.5 15.17 8.5C15.0374 8.5 14.9102 8.55268 14.8164 8.64645C14.7227 8.74021 14.67 8.86739 14.67 9V13C14.67 13.1326 14.7227 13.2598 14.8164 13.3536C14.9102 13.4473 15.0374 13.5 15.17 13.5ZM21.5 10H19.5C19.3674 10 19.2402 10.0527 19.1464 10.1464C19.0527 10.2402 19 10.3674 19 10.5C19 10.6326 19.0527 10.7598 19.1464 10.8536C19.2402 10.9473 19.3674 11 19.5 11H21.5C21.6326 11 21.7598 10.9473 21.8536 10.8536C21.9473 10.7598 22 10.6326 22 10.5C22 10.3674 21.9473 10.2402 21.8536 10.1464C21.7598 10.0527 21.6326 10 21.5 10ZM21.5 6H19.5C19.3674 6 19.2402 6.05268 19.1464 6.14645C19.0527 6.24021 19 6.36739 19 6.5C19 6.63261 19.0527 6.75979 19.1464 6.85355C19.2402 6.94732 19.3674 7 19.5 7H21.5C21.6326 7 21.7598 6.94732 21.8536 6.85355C21.9473 6.75979 22 6.63261 22 6.5C22 6.36739 21.9473 6.24021 21.8536 6.14645C21.7598 6.05268 21.6326 6 21.5 6ZM21.5 8H19.5C19.3674 8 19.2402 8.05268 19.1464 8.14645C19.0527 8.24021 19 8.36739 19 8.5C19 8.63261 19.0527 8.75979 19.1464 8.85355C19.2402 8.94732 19.3674 9 19.5 9H21.5C21.6326 9 21.7598 8.94732 21.8536 8.85355C21.9473 8.75979 22 8.63261 22 8.5C22 8.36739 21.9473 8.24021 21.8536 8.14645C21.7598 8.05268 21.6326 8 21.5 8Z" fill="black"/>
</g>
<defs>
<clipPath id="clip0_2679_1071">
<rect width="24" height="24" fill="white"/>
</clipPath>
</defs>
</svg>
