<svg width="24" height="24" viewBox="0 0 24 24" fill="none" xmlns="http://www.w3.org/2000/svg">
<g clip-path="url(#clip0_2679_1078)">
<path d="M12 19C12.5933 19 13.1734 18.8241 13.6667 18.4944C14.16 18.1648 14.5446 17.6962 14.7716 17.1481C14.9987 16.5999 15.0581 15.9967 14.9423 15.4147C14.8266 14.8328 14.5409 14.2982 14.1213 13.8787C13.7018 13.4591 13.1672 13.1734 12.5853 13.0576C12.0033 12.9419 11.4001 13.0013 10.8519 13.2284C10.3038 13.4554 9.83523 13.8399 9.50558 14.3333C9.17594 14.8266 8.99999 15.4067 8.99999 16C8.99999 16.7956 9.31606 17.5587 9.87867 18.1213C10.4413 18.6839 11.2043 19 12 19ZM12 14C12.3956 14 12.7822 14.1173 13.1111 14.3371C13.44 14.5568 13.6964 14.8692 13.8477 15.2346C13.9991 15.6001 14.0387 16.0022 13.9616 16.3902C13.8844 16.7781 13.6939 17.1345 13.4142 17.4142C13.1345 17.6939 12.7781 17.8844 12.3902 17.9616C12.0022 18.0387 11.6001 17.9991 11.2346 17.8478C10.8692 17.6964 10.5568 17.44 10.3371 17.1111C10.1173 16.7822 9.99999 16.3956 9.99999 16C9.99999 15.4696 10.2107 14.9609 10.5858 14.5858C10.9608 14.2107 11.4696 14 12 14ZM12 16.5C12.0989 16.5 12.1955 16.4707 12.2778 16.4157C12.36 16.3608 12.4241 16.2827 12.4619 16.1913C12.4998 16.1 12.5097 15.9994 12.4904 15.9025C12.4711 15.8055 12.4235 15.7164 12.3535 15.6464C12.2836 15.5765 12.1945 15.5289 12.0975 15.5096C12.0005 15.4903 11.9 15.5002 11.8086 15.5381C11.7173 15.5759 11.6392 15.64 11.5843 15.7222C11.5293 15.8044 11.5 15.9011 11.5 16C11.5 16.1326 11.5527 16.2598 11.6464 16.3536C11.7402 16.4473 11.8674 16.5 12 16.5ZM21.5 11.5C21.5762 11.5003 21.6514 11.4832 21.72 11.45L23.72 10.45C23.7835 10.4236 23.8408 10.3843 23.8884 10.3347C23.936 10.2851 23.9729 10.2263 23.9968 10.1618C24.0206 10.0973 24.0309 10.0286 24.027 9.95991C24.023 9.89127 24.005 9.82417 23.974 9.76281C23.943 9.70145 23.8996 9.64715 23.8467 9.6033C23.7937 9.55945 23.7323 9.52699 23.6662 9.50796C23.6001 9.48893 23.5308 9.48372 23.4627 9.49268C23.3945 9.50163 23.3289 9.52455 23.27 9.56L21.27 10.56C21.168 10.6094 21.0858 10.692 21.0369 10.7943C20.988 10.8965 20.9752 11.0124 21.0008 11.1228C21.0264 11.2332 21.0887 11.3317 21.1776 11.4021C21.2665 11.4724 21.3766 11.5105 21.49 11.51L21.5 11.5ZM0.279989 10.45L2.27999 11.45C2.39654 11.4985 2.52713 11.5012 2.64555 11.4574C2.76396 11.4136 2.86144 11.3267 2.91841 11.214C2.97537 11.1014 2.98761 10.9713 2.95266 10.85C2.91771 10.7287 2.83816 10.6251 2.72999 10.56L0.729989 9.56C0.613442 9.51147 0.482851 9.50882 0.364433 9.55259C0.246015 9.59636 0.148538 9.6833 0.0915721 9.79597C0.0346065 9.90863 0.0223698 10.0387 0.0573186 10.16C0.0922675 10.2813 0.171815 10.3849 0.279989 10.45ZM2.27999 14.56L0.279989 15.56C0.17797 15.6094 0.0957668 15.692 0.0468593 15.7943C-0.00204822 15.8965 -0.0147573 16.0124 0.0108163 16.1228C0.0363898 16.2332 0.0987279 16.3317 0.187608 16.4021C0.276489 16.4724 0.386637 16.5105 0.499989 16.51C0.576213 16.5107 0.651543 16.4936 0.719989 16.46L2.71999 15.46C2.78346 15.4336 2.8408 15.3943 2.88843 15.3447C2.93605 15.2951 2.97293 15.2363 2.99677 15.1718C3.02061 15.1073 3.03089 15.0386 3.02697 14.9699C3.02305 14.9013 3.00501 14.8342 2.97398 14.7728C2.94296 14.7115 2.89961 14.6572 2.84665 14.6133C2.7937 14.5695 2.73226 14.537 2.66619 14.518C2.60012 14.4989 2.53084 14.4937 2.46267 14.5027C2.39449 14.5116 2.3289 14.5346 2.26999 14.57L2.27999 14.56ZM17.5 22C17.5989 22 17.6955 21.9707 17.7778 21.9157C17.86 21.8608 17.9241 21.7827 17.9619 21.6913C17.9998 21.6 18.0097 21.4994 17.9904 21.4025C17.9711 21.3055 17.9235 21.2164 17.8535 21.1464C17.7836 21.0765 17.6945 21.0289 17.5975 21.0096C17.5005 20.9903 17.4 21.0002 17.3086 21.0381C17.2173 21.0759 17.1392 21.14 17.0843 21.2222C17.0293 21.3044 17 21.4011 17 21.5C17 21.6326 17.0527 21.7598 17.1464 21.8536C17.2402 21.9473 17.3674 22 17.5 22ZM2.49999 12.5H0.499989C0.367381 12.5 0.240204 12.5527 0.146436 12.6464C0.0526676 12.7402 -1.08641e-05 12.8674 -1.08641e-05 13C-1.08641e-05 13.1326 0.0526676 13.2598 0.146436 13.3536C0.240204 13.4473 0.367381 13.5 0.499989 13.5H2.49999C2.6326 13.5 2.75977 13.4473 2.85354 13.3536C2.94731 13.2598 2.99999 13.1326 2.99999 13C2.99999 12.8674 2.94731 12.7402 2.85354 12.6464C2.75977 12.5527 2.6326 12.5 2.49999 12.5ZM21.5 13.5H23.5C23.6326 13.5 23.7598 13.4473 23.8535 13.3536C23.9473 13.2598 24 13.1326 24 13C24 12.8674 23.9473 12.7402 23.8535 12.6464C23.7598 12.5527 23.6326 12.5 23.5 12.5H21.5C21.3674 12.5 21.2402 12.5527 21.1464 12.6464C21.0527 12.7402 21 12.8674 21 13C21 13.1326 21.0527 13.2598 21.1464 13.3536C21.2402 13.4473 21.3674 13.5 21.5 13.5ZM17.5 0H6.49999C5.83695 0 5.20106 0.263392 4.73222 0.732233C4.26338 1.20107 3.99999 1.83696 3.99999 2.5V21.5C3.99999 21.8283 4.06465 22.1534 4.19029 22.4567C4.31593 22.76 4.50008 23.0356 4.73222 23.2678C4.96437 23.4999 5.23997 23.6841 5.54328 23.8097C5.84659 23.9353 6.17168 24 6.49999 24H17.5C17.8283 24 18.1534 23.9353 18.4567 23.8097C18.76 23.6841 19.0356 23.4999 19.2678 23.2678C19.4999 23.0356 19.684 22.76 19.8097 22.4567C19.9353 22.1534 20 21.8283 20 21.5V2.5C20 1.83696 19.7366 1.20107 19.2678 0.732233C18.7989 0.263392 18.163 0 17.5 0V0ZM19 21.5C19 21.8978 18.842 22.2794 18.5606 22.5607C18.2793 22.842 17.8978 23 17.5 23H6.49999C6.10216 23 5.72063 22.842 5.43933 22.5607C5.15802 22.2794 4.99999 21.8978 4.99999 21.5V10H19V21.5ZM19 9H4.99999V2.5C4.99999 2.10218 5.15802 1.72064 5.43933 1.43934C5.72063 1.15804 6.10216 1 6.49999 1H17.5C17.8978 1 18.2793 1.15804 18.5606 1.43934C18.842 1.72064 19 2.10218 19 2.5V9ZM17.5 2C17.4011 2 17.3044 2.02932 17.2222 2.08427C17.14 2.13921 17.0759 2.2173 17.038 2.30866C17.0002 2.40002 16.9903 2.50055 17.0096 2.59755C17.0289 2.69454 17.0765 2.78363 17.1464 2.85355C17.2164 2.92348 17.3055 2.9711 17.4024 2.99039C17.4994 3.00969 17.6 2.99978 17.6913 2.96194C17.7827 2.9241 17.8608 2.86001 17.9157 2.77779C17.9707 2.69556 18 2.59889 18 2.5C18 2.36739 17.9473 2.24021 17.8535 2.14645C17.7598 2.05268 17.6326 2 17.5 2ZM12 21C12.9889 21 13.9556 20.7068 14.7778 20.1573C15.6001 19.6079 16.2409 18.827 16.6194 17.9134C16.9978 16.9998 17.0968 15.9945 16.9039 15.0245C16.711 14.0546 16.2348 13.1637 15.5355 12.4645C14.8363 11.7652 13.9453 11.289 12.9754 11.0961C12.0055 10.9031 11.0002 11.0022 10.0866 11.3806C9.17294 11.759 8.39205 12.3999 7.84264 13.2221C7.29323 14.0444 6.99999 15.0111 6.99999 16C6.99999 17.3261 7.52677 18.5979 8.46446 19.5355C9.40214 20.4732 10.6739 21 12 21ZM12 12C12.7911 12 13.5645 12.2346 14.2223 12.6741C14.8801 13.1136 15.3928 13.7384 15.6955 14.4693C15.9983 15.2002 16.0775 16.0044 15.9231 16.7804C15.7688 17.5563 15.3878 18.269 14.8284 18.8284C14.269 19.3878 13.5563 19.7688 12.7804 19.9231C12.0044 20.0775 11.2002 19.9983 10.4693 19.6955C9.73835 19.3928 9.11364 18.8801 8.67411 18.2223C8.23459 17.5645 7.99999 16.7911 7.99999 16C7.99999 14.9391 8.42142 13.9217 9.17156 13.1716C9.92171 12.4214 10.9391 12 12 12ZM23.72 15.55L21.72 14.55C21.6034 14.5015 21.4728 14.4988 21.3544 14.5426C21.236 14.5864 21.1385 14.6733 21.0816 14.786C21.0246 14.8986 21.0124 15.0287 21.0473 15.15C21.0823 15.2713 21.1618 15.3749 21.27 15.44L23.27 16.44C23.3384 16.4736 23.4138 16.4907 23.49 16.49C23.6033 16.4905 23.7135 16.4524 23.8024 16.3821C23.8913 16.3117 23.9536 16.2132 23.9792 16.1028C24.0047 15.9924 23.992 15.8765 23.9431 15.7743C23.8942 15.672 23.812 15.5894 23.71 15.54L23.72 15.55ZM6.49999 2C6.4011 2 6.30443 2.02932 6.2222 2.08427C6.13998 2.13921 6.07589 2.2173 6.03805 2.30866C6.00021 2.40002 5.9903 2.50055 6.0096 2.59755C6.02889 2.69454 6.07651 2.78363 6.14644 2.85355C6.21636 2.92348 6.30545 2.9711 6.40244 2.99039C6.49943 3.00969 6.59997 2.99978 6.69133 2.96194C6.78269 2.9241 6.86078 2.86001 6.91572 2.77779C6.97066 2.69556 6.99999 2.59889 6.99999 2.5C6.99999 2.36739 6.94731 2.24021 6.85354 2.14645C6.75977 2.05268 6.6326 2 6.49999 2ZM6.49999 22C6.59888 22 6.69555 21.9707 6.77777 21.9157C6.86 21.8608 6.92409 21.7827 6.96193 21.6913C6.99977 21.6 7.00967 21.4994 6.99038 21.4025C6.97109 21.3055 6.92347 21.2164 6.85354 21.1464C6.78362 21.0765 6.69452 21.0289 6.59753 21.0096C6.50054 20.9903 6.40001 21.0002 6.30865 21.0381C6.21728 21.0759 6.13919 21.14 6.08425 21.2222C6.02931 21.3044 5.99999 21.4011 5.99999 21.5C5.99999 21.6326 6.05267 21.7598 6.14644 21.8536C6.2402 21.9473 6.36738 22 6.49999 22ZM12 4.5C11.9011 4.5 11.8044 4.52932 11.7222 4.58427C11.64 4.63921 11.5759 4.7173 11.538 4.80866C11.5002 4.90002 11.4903 5.00055 11.5096 5.09755C11.5289 5.19454 11.5765 5.28363 11.6464 5.35355C11.7164 5.42348 11.8055 5.4711 11.9024 5.49039C11.9994 5.50969 12.1 5.49978 12.1913 5.46194C12.2827 5.4241 12.3608 5.36001 12.4157 5.27779C12.4707 5.19556 12.5 5.09889 12.5 5C12.5 4.86739 12.4473 4.74021 12.3535 4.64645C12.2598 4.55268 12.1326 4.5 12 4.5ZM12 2C11.4066 2 10.8266 2.17595 10.3333 2.50559C9.83993 2.83524 9.45541 3.30377 9.22835 3.85195C9.00129 4.40013 8.94188 5.00333 9.05763 5.58527C9.17339 6.16721 9.45911 6.70176 9.87867 7.12132C10.2982 7.54088 10.8328 7.8266 11.4147 7.94236C11.9967 8.05811 12.5999 7.9987 13.148 7.77164C13.6962 7.54458 14.1648 7.16006 14.4944 6.66671C14.824 6.17336 15 5.59334 15 5C15 4.20435 14.6839 3.44129 14.1213 2.87868C13.5587 2.31607 12.7956 2 12 2ZM12 7C11.6044 7 11.2177 6.8827 10.8888 6.66294C10.56 6.44318 10.3036 6.13082 10.1522 5.76537C10.0009 5.39991 9.96125 4.99778 10.0384 4.60982C10.1156 4.22186 10.3061 3.86549 10.5858 3.58579C10.8655 3.30608 11.2218 3.1156 11.6098 3.03843C11.9978 2.96126 12.3999 3.00087 12.7654 3.15224C13.1308 3.30362 13.4432 3.55996 13.6629 3.88886C13.8827 4.21776 14 4.60444 14 5C14 5.53043 13.7893 6.03914 13.4142 6.41421C13.0391 6.78929 12.5304 7 12 7Z" fill="black"/>
</g>
<defs>
<clipPath id="clip0_2679_1078">
<rect width="24" height="24" fill="white"/>
</clipPath>
</defs>
</svg>
