<svg width="24" height="24" viewBox="0 0 24 24" fill="none" xmlns="http://www.w3.org/2000/svg">
<path d="M12 2.5C12.0989 2.5 12.1956 2.47068 12.2778 2.41573C12.36 2.36079 12.4241 2.2827 12.4619 2.19134C12.4998 2.09998 12.5097 1.99945 12.4904 1.90245C12.4711 1.80546 12.4235 1.71637 12.3536 1.64645C12.2836 1.57652 12.1945 1.5289 12.0975 1.50961C12.0006 1.49031 11.9 1.50022 11.8087 1.53806C11.7173 1.5759 11.6392 1.63999 11.5843 1.72221C11.5293 1.80444 11.5 1.90111 11.5 2C11.5 2.13261 11.5527 2.25979 11.6464 2.35355C11.7402 2.44732 11.8674 2.5 12 2.5ZM12 20C11.8022 20 11.6089 20.0586 11.4444 20.1685C11.28 20.2784 11.1518 20.4346 11.0761 20.6173C11.0004 20.8 10.9806 21.0011 11.0192 21.1951C11.0578 21.3891 11.153 21.5673 11.2929 21.7071C11.4327 21.847 11.6109 21.9422 11.8049 21.9808C11.9989 22.0194 12.2 21.9996 12.3827 21.9239C12.5654 21.8482 12.7216 21.72 12.8315 21.5556C12.9414 21.3911 13 21.1978 13 21C13 20.7348 12.8946 20.4804 12.7071 20.2929C12.5196 20.1054 12.2652 20 12 20ZM19 3H5C4.86739 3 4.74021 3.05268 4.64645 3.14645C4.55268 3.24021 4.5 3.36739 4.5 3.5V18.5C4.5 18.6326 4.55268 18.7598 4.64645 18.8536C4.74021 18.9473 4.86739 19 5 19H19C19.1326 19 19.2598 18.9473 19.3536 18.8536C19.4473 18.7598 19.5 18.6326 19.5 18.5V3.5C19.5 3.36739 19.4473 3.24021 19.3536 3.14645C19.2598 3.05268 19.1326 3 19 3ZM18.5 18H5.5V4H18.5V18ZM19 0H5C4.33696 0 3.70107 0.263392 3.23223 0.732233C2.76339 1.20107 2.5 1.83696 2.5 2.5V21.5C2.5 21.8283 2.56466 22.1534 2.6903 22.4567C2.81594 22.76 3.00009 23.0356 3.23223 23.2678C3.46438 23.4999 3.73998 23.6841 4.04329 23.8097C4.34661 23.9353 4.6717 24 5 24H19C19.3283 24 19.6534 23.9353 19.9567 23.8097C20.26 23.6841 20.5356 23.4999 20.7678 23.2678C20.9999 23.0356 21.1841 22.76 21.3097 22.4567C21.4353 22.1534 21.5 21.8283 21.5 21.5V2.5C21.5 1.83696 21.2366 1.20107 20.7678 0.732233C20.2989 0.263392 19.663 0 19 0V0ZM20.5 21.5C20.5 21.8978 20.342 22.2794 20.0607 22.5607C19.7794 22.842 19.3978 23 19 23H5C4.60218 23 4.22064 22.842 3.93934 22.5607C3.65804 22.2794 3.5 21.8978 3.5 21.5V2.5C3.5 2.10218 3.65804 1.72064 3.93934 1.43934C4.22064 1.15804 4.60218 1 5 1H19C19.3978 1 19.7794 1.15804 20.0607 1.43934C20.342 1.72064 20.5 2.10218 20.5 2.5V21.5Z" fill="black"/>
</svg>
