<svg width="24" height="24" viewBox="0 0 24 24" fill="none" xmlns="http://www.w3.org/2000/svg">
<g clip-path="url(#clip0_2679_1092)">
<path d="M19 5.21142e-08H15C14.4237 -0.000117575 13.865 0.198892 13.4185 0.563347C12.9721 0.927802 12.6653 1.43532 12.55 2H11C10.6905 2.00087 10.3889 2.09744 10.1365 2.27647C9.88404 2.4555 9.69316 2.70823 9.59 3H8C7.86739 3 7.74021 3.05268 7.64645 3.14645C7.55268 3.24021 7.5 3.36739 7.5 3.5C7.5 3.63261 7.55268 3.75979 7.64645 3.85355C7.74021 3.94732 7.86739 4 8 4H9.5V7H8C7.86739 7 7.74021 7.05268 7.64645 7.14645C7.55268 7.24021 7.5 7.36739 7.5 7.5C7.5 7.63261 7.55268 7.75979 7.64645 7.85355C7.74021 7.94732 7.86739 8 8 8H9.59C9.69316 8.29177 9.88404 8.5445 10.1365 8.72353C10.3889 8.90256 10.6905 8.99913 11 9H12.5V12.5C12.5 13.163 12.7634 13.7989 13.2322 14.2678C13.7011 14.7366 14.337 15 15 15H16.5V20C16.5 20.7956 16.1839 21.5587 15.6213 22.1213C15.0587 22.6839 14.2956 23 13.5 23C12.7044 23 11.9413 22.6839 11.3787 22.1213C10.8161 21.5587 10.5 20.7956 10.5 20V17C10.5 16.2044 10.1839 15.4413 9.62132 14.8787C9.05871 14.3161 8.29565 14 7.5 14C6.70435 14 5.94129 14.3161 5.37868 14.8787C4.81607 15.4413 4.5 16.2044 4.5 17H4C3.60218 17 3.22064 17.158 2.93934 17.4393C2.65804 17.7206 2.5 18.1022 2.5 18.5V21.5C2.5 21.6326 2.55268 21.7598 2.64645 21.8536C2.74021 21.9473 2.86739 22 3 22H3.5V23.5C3.5 23.6326 3.55268 23.7598 3.64645 23.8536C3.74021 23.9473 3.86739 24 4 24H6C6.13261 24 6.25979 23.9473 6.35355 23.8536C6.44732 23.7598 6.5 23.6326 6.5 23.5V22H7C7.13261 22 7.25979 21.9473 7.35355 21.8536C7.44732 21.7598 7.5 21.6326 7.5 21.5V18.5C7.5 18.1022 7.34196 17.7206 7.06066 17.4393C6.77936 17.158 6.39782 17 6 17H5.5C5.5 16.4696 5.71071 15.9609 6.08579 15.5858C6.46086 15.2107 6.96957 15 7.5 15C8.03043 15 8.53914 15.2107 8.91421 15.5858C9.28929 15.9609 9.5 16.4696 9.5 17V20C9.5 21.0609 9.92143 22.0783 10.6716 22.8284C11.4217 23.5786 12.4391 24 13.5 24C14.5609 24 15.5783 23.5786 16.3284 22.8284C17.0786 22.0783 17.5 21.0609 17.5 20V15H19C19.663 15 20.2989 14.7366 20.7678 14.2678C21.2366 13.7989 21.5 13.163 21.5 12.5V2.5C21.5 1.83696 21.2366 1.20107 20.7678 0.732233C20.2989 0.263392 19.663 5.21142e-08 19 5.21142e-08ZM12.5 8H11C10.8674 8 10.7402 7.94732 10.6464 7.85355C10.5527 7.75979 10.5 7.63261 10.5 7.5V3.5C10.5 3.36739 10.5527 3.24021 10.6464 3.14645C10.7402 3.05268 10.8674 3 11 3H12.5V8ZM5.5 23H4.5V22H5.5V23ZM6 18C6.13261 18 6.25979 18.0527 6.35355 18.1464C6.44732 18.2402 6.5 18.3674 6.5 18.5V21H3.5V18.5C3.5 18.3674 3.55268 18.2402 3.64645 18.1464C3.74021 18.0527 3.86739 18 4 18H6ZM20.5 12.5C20.5 12.8978 20.342 13.2794 20.0607 13.5607C19.7794 13.842 19.3978 14 19 14H15C14.6022 14 14.2206 13.842 13.9393 13.5607C13.658 13.2794 13.5 12.8978 13.5 12.5V2.5C13.5 2.10218 13.658 1.72064 13.9393 1.43934C14.2206 1.15804 14.6022 1 15 1H19C19.3978 1 19.7794 1.15804 20.0607 1.43934C20.342 1.72064 20.5 2.10218 20.5 2.5V12.5ZM17.65 4.15L15.65 6.15C15.5954 6.20467 15.5542 6.27127 15.5296 6.34455C15.505 6.41784 15.4978 6.49581 15.5085 6.57236C15.5191 6.64891 15.5474 6.72195 15.591 6.78574C15.6347 6.84953 15.6925 6.90233 15.76 6.94L17 7.62L15.48 9.15C15.4334 9.19662 15.3964 9.25196 15.3712 9.31288C15.3459 9.37379 15.333 9.43907 15.333 9.505C15.333 9.57093 15.3459 9.63621 15.3712 9.69712C15.3964 9.75804 15.4334 9.81338 15.48 9.86C15.5266 9.90662 15.582 9.9436 15.6429 9.96883C15.7038 9.99406 15.7691 10.007 15.835 10.007C15.9009 10.007 15.9662 9.99406 16.0271 9.96883C16.088 9.9436 16.1434 9.90662 16.19 9.86L18.19 7.86C18.2446 7.80533 18.2858 7.73873 18.3104 7.66545C18.335 7.59216 18.3422 7.51419 18.3315 7.43764C18.3209 7.36109 18.2926 7.28805 18.249 7.22426C18.2053 7.16047 18.1475 7.10767 18.08 7.07L16.83 6.39L18.36 4.86C18.4542 4.76585 18.507 4.63815 18.507 4.505C18.507 4.37185 18.4542 4.24415 18.36 4.15C18.2658 4.05585 18.1382 4.00295 18.005 4.00295C17.8718 4.00295 17.7442 4.05585 17.65 4.15Z" fill="black"/>
</g>
<defs>
<clipPath id="clip0_2679_1092">
<rect width="24" height="24" fill="white"/>
</clipPath>
</defs>
</svg>
