<svg width="50" height="9" viewBox="0 0 50 9" fill="none" xmlns="http://www.w3.org/2000/svg">
<path d="M6.58 7.06C5.87333 7.76667 5.02 8.12 4.02 8.12C3.02 8.12 2.16667 7.76667 1.46 7.06C0.753333 6.35333 0.4 5.5 0.4 4.5C0.4 3.5 0.753333 2.64667 1.46 1.94C2.16667 1.23333 3.02 0.88 4.02 0.88C5.02 0.88 5.87333 1.23333 6.58 1.94C7.28667 2.64667 7.64 3.5 7.64 4.5C7.64 5.5 7.28667 6.35333 6.58 7.06ZM1.67 6.87C2.32333 7.51667 3.10667 7.84 4.02 7.84C4.93333 7.84 5.71333 7.51667 6.36 6.87C7.01333 6.21667 7.34 5.42667 7.34 4.5C7.34 3.57333 7.01333 2.78667 6.36 2.14C5.71333 1.48667 4.93333 1.16 4.02 1.16C3.10667 1.16 2.32333 1.48667 1.67 2.14C1.02333 2.78667 0.7 3.57333 0.7 4.5C0.7 5.42667 1.02333 6.21667 1.67 6.87ZM4.05 6.42C3.50333 6.42 3.04333 6.23333 2.67 5.86C2.29667 5.48667 2.11 5.03333 2.11 4.5C2.11 3.96667 2.29667 3.51333 2.67 3.14C3.04333 2.76667 3.50333 2.58 4.05 2.58C4.40333 2.58 4.72333 2.66333 5.01 2.83C5.30333 2.99667 5.53 3.22333 5.69 3.51L5.14 3.83C5.04667 3.62333 4.9 3.46667 4.7 3.36C4.5 3.25333 4.28333 3.2 4.05 3.2C3.66333 3.2 3.35 3.33 3.11 3.59C2.87667 3.84333 2.76 4.14667 2.76 4.5C2.76 4.85333 2.87667 5.16 3.11 5.42C3.35 5.67333 3.66333 5.8 4.05 5.8C4.29 5.8 4.51 5.74667 4.71 5.64C4.91 5.52667 5.05667 5.36667 5.15 5.16L5.7 5.49C5.54 5.77667 5.31333 6.00333 5.02 6.17C4.72667 6.33667 4.40333 6.42 4.05 6.42ZM10.9371 8V7.37L13.4571 4.83C14.1771 4.11 14.5371 3.49333 14.5371 2.98C14.5371 2.53333 14.3971 2.18667 14.1171 1.94C13.8438 1.68667 13.5138 1.56 13.1271 1.56C12.4071 1.56 11.8838 1.89 11.5571 2.55L10.9671 2.2C11.1871 1.76667 11.4871 1.44 11.8671 1.22C12.2471 0.993333 12.6671 0.88 13.1271 0.88C13.6871 0.88 14.1771 1.07 14.5971 1.45C15.0238 1.82333 15.2371 2.33333 15.2371 2.98C15.2371 3.38667 15.1238 3.77667 14.8971 4.15C14.6704 4.52333 14.3504 4.91667 13.9371 5.33L11.9371 7.32H15.3871V8H10.9371ZM20.7934 7.14C20.3334 7.79333 19.6834 8.12 18.8434 8.12C18.0034 8.12 17.35 7.79333 16.8834 7.14C16.4234 6.48 16.1934 5.6 16.1934 4.5C16.1934 3.4 16.4234 2.52333 16.8834 1.87C17.35 1.21 18.0034 0.88 18.8434 0.88C19.6834 0.88 20.3334 1.21 20.7934 1.87C21.26 2.52333 21.4934 3.4 21.4934 4.5C21.4934 5.6 21.26 6.48 20.7934 7.14ZM17.4034 6.67C17.75 7.18333 18.23 7.44 18.8434 7.44C19.4567 7.44 19.9334 7.18333 20.2734 6.67C20.62 6.15667 20.7934 5.43333 20.7934 4.5C20.7934 3.56667 20.62 2.84333 20.2734 2.33C19.9334 1.81667 19.4567 1.56 18.8434 1.56C18.23 1.56 17.75 1.81667 17.4034 2.33C17.0634 2.84333 16.8934 3.56667 16.8934 4.5C16.8934 5.43333 17.0634 6.15667 17.4034 6.67ZM22.2945 8V7.37L24.8145 4.83C25.5345 4.11 25.8945 3.49333 25.8945 2.98C25.8945 2.53333 25.7545 2.18667 25.4745 1.94C25.2012 1.68667 24.8712 1.56 24.4845 1.56C23.7645 1.56 23.2412 1.89 22.9145 2.55L22.3245 2.2C22.5445 1.76667 22.8445 1.44 23.2245 1.22C23.6045 0.993333 24.0245 0.88 24.4845 0.88C25.0445 0.88 25.5345 1.07 25.9545 1.45C26.3812 1.82333 26.5945 2.33333 26.5945 2.98C26.5945 3.38667 26.4812 3.77667 26.2545 4.15C26.0279 4.52333 25.7079 4.91667 25.2945 5.33L23.2945 7.32H26.7445V8H22.2945ZM29.1484 1H29.7484V8H29.0484V1.77L27.4784 2.24L27.2984 1.64L29.1484 1ZM35.7269 8L33.1469 1H33.9069L36.0869 7.07L38.2669 1H39.0269L36.4469 8H35.7269ZM39.3355 8V7.37L41.8555 4.83C42.5755 4.11 42.9355 3.49333 42.9355 2.98C42.9355 2.53333 42.7955 2.18667 42.5155 1.94C42.2422 1.68667 41.9122 1.56 41.5255 1.56C40.8055 1.56 40.2822 1.89 39.9555 2.55L39.3655 2.2C39.5855 1.76667 39.8855 1.44 40.2655 1.22C40.6455 0.993333 41.0655 0.88 41.5255 0.88C42.0855 0.88 42.5755 1.07 42.9955 1.45C43.4222 1.82333 43.6355 2.33333 43.6355 2.98C43.6355 3.38667 43.5222 3.77667 43.2955 4.15C43.0689 4.52333 42.7489 4.91667 42.3355 5.33L40.3355 7.32H43.7855V8H39.3355ZM47.1895 8.12C46.5495 8.12 45.9995 7.97 45.5395 7.67C45.0861 7.36333 44.7695 6.94333 44.5895 6.41L45.1895 6.06C45.3161 6.49333 45.5495 6.83333 45.8895 7.08C46.2295 7.32 46.6661 7.44 47.1995 7.44C47.7195 7.44 48.1228 7.32667 48.4095 7.1C48.7028 6.86667 48.8495 6.56 48.8495 6.18C48.8495 5.81333 48.7161 5.53667 48.4495 5.35C48.1828 5.16333 47.7428 4.97 47.1295 4.77C46.4028 4.53 45.9228 4.33667 45.6895 4.19C45.1561 3.87 44.8895 3.40667 44.8895 2.8C44.8895 2.20667 45.0961 1.74 45.5095 1.4C45.9228 1.05333 46.4328 0.88 47.0395 0.88C47.5861 0.88 48.0595 1.02333 48.4595 1.31C48.8595 1.59 49.1561 1.95 49.3495 2.39L48.7595 2.72C48.4395 1.94667 47.8661 1.56 47.0395 1.56C46.6061 1.56 46.2561 1.66667 45.9895 1.88C45.7228 2.09333 45.5895 2.39 45.5895 2.77C45.5895 3.11667 45.7095 3.37667 45.9495 3.55C46.1895 3.72333 46.5861 3.9 47.1395 4.08C47.3928 4.16667 47.5728 4.23 47.6795 4.27C47.7928 4.30333 47.9528 4.36333 48.1595 4.45C48.3728 4.53 48.5295 4.60333 48.6295 4.67C48.7295 4.73 48.8495 4.81667 48.9895 4.93C49.1361 5.03667 49.2395 5.14667 49.2995 5.26C49.3661 5.36667 49.4228 5.5 49.4695 5.66C49.5228 5.81333 49.5495 5.98 49.5495 6.16C49.5495 6.75333 49.3328 7.23 48.8995 7.59C48.4661 7.94333 47.8961 8.12 47.1895 8.12Z" fill="black"/>
</svg>
