<svg width="121" height="50" viewBox="0 0 121 50" fill="none" xmlns="http://www.w3.org/2000/svg">
<path d="M6.828 1.01068L19.2177 37.1891H31.6883L41.3994 1H32.9951L25.4966 29.6617L14.2768 1L6.828 1.01068Z" fill="black" stroke="black" stroke-miterlimit="10"/>
<path d="M51.5749 23.3476L69.2512 23.4287L69.2511 23.464C73.8839 23.4853 77.656 19.5656 77.6762 14.7092L77.6991 9.22493C77.717 4.92936 74.4097 1.43202 70.3118 1.41328L43.3524 1.28967L43.3199 9.06745L69.3105 9.18655L69.2836 15.6511L45.6631 15.5428C44.3541 15.5369 43.2883 16.6443 43.2826 18.0165L43.2084 18.0161L43.1277 37.3209L51.5163 37.3593L77.5812 37.4787L77.6034 32.1696C77.609 30.8063 76.5593 29.6961 75.2587 29.6902L51.5488 29.5815L51.5749 23.3476Z" fill="#007CFF"/>
<path d="M103.703 23.1344H88.0527C88.0434 23.1344 88.0358 23.1424 88.0358 23.1522C88.0358 23.1619 88.0282 23.1699 88.0189 23.1699H86.1481C82.542 23.1699 79.6185 20.1025 79.6185 16.3188V8.82992C79.6185 4.51559 82.9518 1.01819 87.0637 1.01819H114.115V8.82992H89.3246C88.6127 8.82992 88.0358 9.43529 88.0358 10.1822V14.1434C88.0358 14.7948 88.5389 15.3227 89.1597 15.3227H111.737C113.051 15.3227 114.115 16.4399 114.115 17.818H114.19V33.5877C114.19 35.5868 112.646 37.2073 110.74 37.2073H105.773H79.6185V29.3955H103.703C104.846 29.3955 105.773 28.4231 105.773 27.2238V25.3062C105.773 24.1068 104.846 23.1344 103.703 23.1344Z" fill="black"/>
<path d="M0 39.4384H121" stroke="black" stroke-miterlimit="10"/>
<path d="M8.52234 41.5499H9.6359V49.8962H8.52234V41.5499ZM9.18066 48.8114H11.3419C11.9087 48.8114 12.3219 48.6985 12.5817 48.4726C12.8413 48.2469 12.9711 47.9293 12.9711 47.5196V47.5025C12.9711 47.2192 12.9244 46.9763 12.8312 46.7734C12.7379 46.5707 12.5906 46.4146 12.3896 46.3055C12.1885 46.1964 11.9306 46.142 11.6162 46.142H9.18066V45.0858H11.6162C12.0295 45.0858 12.3411 44.9845 12.5514 44.7815C12.7616 44.5788 12.8668 44.2784 12.8668 43.8803C12.8668 43.4632 12.7498 43.1512 12.5158 42.9447C12.2818 42.738 11.9306 42.6347 11.4626 42.6347H9.18066V41.5497H11.6655C12.181 41.5497 12.6126 41.6416 12.96 41.8251C13.3074 42.0089 13.567 42.2692 13.7389 42.6058C13.9107 42.9425 13.9968 43.3444 13.9968 43.8112C13.9968 44.0982 13.9438 44.3672 13.8378 44.6177C13.7317 44.8684 13.5699 45.0827 13.3523 45.2607C13.1347 45.4386 12.8649 45.5584 12.5433 45.6195C12.8651 45.6692 13.143 45.7888 13.377 45.9783C13.6111 46.1677 13.7903 46.4041 13.9145 46.6873C14.0388 46.9705 14.101 47.2767 14.101 47.6057V47.6229C14.101 48.0745 14.006 48.4724 13.8159 48.817C13.6257 49.1613 13.3532 49.4274 12.9985 49.615C12.6437 49.8025 12.2306 49.8962 11.7588 49.8962H9.18066V48.8114Z" fill="black"/>
<path d="M19.035 43.9379H20.1541V49.8963H19.035V43.9379ZM21.7942 45.0629C21.6442 44.9978 21.4705 44.9652 21.2732 44.9652C20.9183 44.9652 20.6432 45.0676 20.4475 45.2723C20.2519 45.477 20.1541 45.7612 20.1541 46.1247L20.0388 44.9766C20.2144 44.6207 20.441 44.3443 20.7191 44.1472C20.997 43.9502 21.3041 43.8516 21.6406 43.8516C21.9002 43.8516 22.1351 43.8909 22.3454 43.9694C22.5556 44.0479 22.7395 44.1636 22.8968 44.3166L22.1672 45.3499C22.0684 45.2237 21.9441 45.128 21.7942 45.0629Z" fill="black"/>
<path d="M27.4463 49.5261C27.0989 49.2219 26.9252 48.7598 26.9252 48.1398C26.9252 47.5505 27.0842 47.1085 27.4024 46.8137C27.7205 46.5191 28.2014 46.3717 28.845 46.3717H30.4632L30.5399 47.3131H28.8505C28.5579 47.3131 28.3395 47.3811 28.195 47.5169C28.0505 47.6527 27.9782 47.8604 27.9782 48.1398C27.9782 48.4422 28.0742 48.6659 28.2662 48.8113C28.4582 48.9567 28.7498 49.0295 29.141 49.0295C29.569 49.0295 29.8878 48.9817 30.0982 48.886C30.3083 48.7904 30.4136 48.6411 30.4136 48.4382L30.5289 49.2763C30.4302 49.4371 30.3085 49.5692 30.164 49.6724C30.0195 49.7757 29.8522 49.8533 29.6621 49.9048C29.472 49.9566 29.258 49.9822 29.0204 49.9822C28.3184 49.9824 27.7936 49.8303 27.4463 49.5261ZM30.4138 46.1192C30.4138 45.7289 30.314 45.4256 30.1148 45.2094C29.9155 44.9933 29.6329 44.8851 29.2672 44.8851C29.0404 44.8851 28.8182 44.9215 28.6008 44.9942C28.3832 45.0669 28.1903 45.1684 28.0221 45.2984L27.2048 44.713C27.4205 44.4413 27.7048 44.2299 28.0577 44.0787C28.4107 43.9275 28.8028 43.8519 29.2344 43.8519C29.706 43.8519 30.1101 43.939 30.4466 44.113C30.7829 44.2872 31.0391 44.5399 31.2145 44.8707C31.3901 45.2017 31.4777 45.6006 31.4777 46.0674V49.8962H30.4136V46.1192H30.4138Z" fill="black"/>
<path d="M36.5491 43.9379H37.6682V49.8963H36.5491V43.9379ZM40.0049 46.2857C40.0049 45.8648 39.9007 45.5394 39.6923 45.3098C39.4838 45.0801 39.1912 44.9654 38.8146 44.9654C38.4489 44.9654 38.1663 45.0669 37.9671 45.2696C37.7678 45.4725 37.6681 45.7576 37.6681 46.1249L37.5528 44.9768C37.7284 44.617 37.9577 44.3396 38.2412 44.1444C38.5246 43.9493 38.8381 43.8516 39.1819 43.8516C39.7999 43.8516 40.278 44.0631 40.6164 44.4859C40.9546 44.9088 41.1238 45.5067 41.1238 46.2797V49.8961H40.0048V46.2857H40.0049Z" fill="black"/>
<path d="M46.9312 49.7153C46.6369 49.5259 46.4129 49.2494 46.2593 48.8858C46.1056 48.5223 46.0289 48.086 46.0289 47.5771V46.2626C46.0289 45.7498 46.1037 45.3116 46.2537 44.9481C46.4036 44.5845 46.622 44.308 46.9093 44.1186C47.1964 43.9293 47.541 43.8345 47.9433 43.8345C48.2797 43.8345 48.5878 43.9264 48.8676 44.1099C49.1475 44.2935 49.3732 44.552 49.5451 44.8849L49.4299 46.102C49.4299 45.8495 49.386 45.6332 49.2982 45.4534C49.2104 45.2736 49.0833 45.1367 48.9169 45.043C48.7505 44.9493 48.5484 44.9023 48.3108 44.9023C47.9414 44.9023 47.6552 45.0229 47.4523 45.264C47.2494 45.5051 47.148 45.8439 47.148 46.2801V47.5775C47.148 48.0099 47.2494 48.3438 47.4523 48.5791C47.6552 48.8144 47.9414 48.9321 48.3108 48.9321C48.5484 48.9321 48.7505 48.8833 48.9169 48.7858C49.0833 48.6883 49.2104 48.5476 49.2982 48.3639C49.386 48.1801 49.4299 47.9602 49.4299 47.7037L49.5066 48.9609C49.3932 49.2557 49.2076 49.5024 48.9499 49.7013C48.6922 49.9003 48.3747 49.9998 47.9981 49.9998C47.5812 49.9994 47.2256 49.9048 46.9312 49.7153ZM49.4297 41.5498H50.5488V49.8961H49.4297V41.5498Z" fill="black"/>
<path d="M67.8497 41.5498H68.8974V49.8961H67.8058V43.6449L67.8606 44.0123L65.8969 48.7366H65.1179L63.1542 44.1271L63.209 43.6449V49.8961H62.1174V41.5498H63.1651L65.5073 47.0605L67.8497 41.5498Z" fill="black"/>
<path d="M74.379 49.5261C74.0316 49.2219 73.8579 48.7598 73.8579 48.1398C73.8579 47.5505 74.0169 47.1085 74.3351 46.8137C74.6533 46.5191 75.1341 46.3717 75.7777 46.3717H77.396L77.4727 47.3131H75.7833C75.4907 47.3131 75.2722 47.3811 75.1277 47.5169C74.9832 47.6527 74.911 47.8604 74.911 48.1398C74.911 48.4422 75.0069 48.6659 75.1989 48.8113C75.3909 48.9567 75.6825 49.0295 76.0738 49.0295C76.5017 49.0295 76.8206 48.9817 77.0309 48.886C77.2413 48.7904 77.3464 48.6411 77.3464 48.4382L77.4616 49.2763C77.363 49.4371 77.2413 49.5692 77.0968 49.6724C76.9523 49.7757 76.785 49.8533 76.5949 49.9048C76.4048 49.9566 76.1908 49.9822 75.9532 49.9822C75.2513 49.9824 74.7264 49.8303 74.379 49.5261ZM77.3467 46.1192C77.3467 45.7289 77.247 45.4256 77.0477 45.2094C76.8483 44.9933 76.5659 44.8851 76.2001 44.8851C75.9734 44.8851 75.7511 44.9215 75.5337 44.9942C75.3161 45.0669 75.1232 45.1684 74.9551 45.2984L74.1377 44.713C74.3534 44.4413 74.6377 44.2299 74.9907 44.0787C75.3436 43.9275 75.7357 43.8519 76.1673 43.8519C76.639 43.8519 77.043 43.939 77.3796 44.113C77.7159 44.2872 77.972 44.5399 78.1475 44.8707C78.323 45.2017 78.4107 45.6006 78.4107 46.0674V49.8962H77.3465V46.1192H77.3467Z" fill="black"/>
<path d="M83.4814 43.9379H84.6005V49.8963H83.4814V43.9379ZM86.2405 45.0629C86.0905 44.9978 85.9168 44.9652 85.7195 44.9652C85.3646 44.9652 85.0895 45.0676 84.8938 45.2723C84.6982 45.477 84.6004 45.7612 84.6004 46.1247L84.4851 44.9766C84.6607 44.6207 84.8873 44.3443 85.1654 44.1472C85.4433 43.9502 85.7504 43.8516 86.0869 43.8516C86.3465 43.8516 86.5814 43.8909 86.7917 43.9694C87.0019 44.0479 87.1858 44.1636 87.343 44.3166L86.6135 45.3499C86.5148 45.2237 86.3906 45.128 86.2405 45.0629Z" fill="black"/>
<path d="M91.6463 41.5498H92.7654V49.8961H91.6463V41.5498ZM92.129 47.6344L95.0582 43.9378H96.3747L92.0576 49.0236L92.129 47.6344ZM93.451 46.4577L94.1697 45.6771L96.6545 49.8963H95.4367L93.451 46.4577Z" fill="black"/>
<path d="M102.499 49.9824C102.499 49.9824 102.313 49.8791 101.94 49.6724C101.567 49.4656 101.282 49.1625 101.087 48.7624C100.891 48.3626 100.793 47.8795 100.793 47.313V46.6415C100.793 46.0522 100.887 45.5489 101.076 45.1318C101.264 44.7147 101.537 44.3969 101.896 44.1788C102.254 43.9607 102.686 43.8516 103.19 43.8516C103.666 43.8516 104.072 43.9761 104.408 44.2247C104.744 44.4736 105.001 44.8332 105.179 45.304C105.356 45.7748 105.445 46.3392 105.445 46.9974V47.3877H101.605V46.4463H104.381C104.348 45.9603 104.228 45.5823 104.021 45.3126C103.815 45.0428 103.538 44.9079 103.19 44.9079C102.766 44.9079 102.438 45.0533 102.206 45.3441C101.974 45.6349 101.858 46.0464 101.858 46.5783V47.336C101.858 47.8296 101.982 48.2085 102.23 48.4725C102.479 48.7366 102.832 48.8686 103.289 48.8686C103.516 48.8686 103.741 48.8209 103.964 48.7252C104.187 48.6295 104.386 48.4955 104.562 48.3233L105.297 49.0925C105.015 49.3758 104.699 49.5948 104.348 49.7498C103.997 49.9048 103.644 49.9822 103.289 49.9822C102.762 49.9824 102.499 49.9824 102.499 49.9824Z" fill="black"/>
<path d="M109.911 43.9378H112.479V44.9941H109.911V43.9378ZM110.819 49.526C110.605 49.2601 110.498 48.8667 110.498 48.3464V42.2042H111.618V48.3578C111.618 48.5032 111.645 48.6151 111.7 48.6936C111.755 48.7721 111.835 48.8114 111.941 48.8114H112.479V49.9249H111.831C111.371 49.9249 111.033 49.792 110.819 49.526Z" fill="black"/>
</svg>
